<svg width="18" height="18" viewBox="0 0 18 18" fill="none" xmlns="http://www.w3.org/2000/svg">
<path d="M8.7498 0C9.1295 0 9.4434 0.28201 9.4931 0.64808L9.5 0.74985L9.5012 8H16.7543C17.1685 8 17.5043 8.3358 17.5043 8.75C17.5043 9.1297 17.2221 9.4435 16.8561 9.4932L16.7543 9.5H9.5012L9.5032 16.7491C9.5033 17.1633 9.1676 17.4993 8.7534 17.4993C8.3737 17.4993 8.0598 17.2173 8.0101 16.8512L8.0032 16.7494L8.0012 9.5H0.752197C0.337977 9.5 0.00219727 9.1642 0.00219727 8.75C0.00219727 8.3703 0.284347 8.0565 0.650427 8.0068L0.752197 8H8.0012L8 0.75015C7.9999 0.33594 8.3356 0 8.7498 0Z" fill="#2D403D"/>
</svg>
