<svg width="18" height="19" viewBox="0 0 18 19" fill="none" xmlns="http://www.w3.org/2000/svg">
<path d="M8 4.5C8 2.29086 6.20914 0.5 4 0.5C1.79086 0.5 0 2.29086 0 4.5C0 6.70914 1.79086 8.5 4 8.5C6.20914 8.5 8 6.70914 8 4.5ZM6.5 4.5C6.5 5.88071 5.38071 7 4 7C2.61929 7 1.5 5.88071 1.5 4.5C1.5 3.11929 2.61929 2 4 2C5.38071 2 6.5 3.11929 6.5 4.5ZM18 4.5C18 2.29086 16.2091 0.5 14 0.5C11.7909 0.5 10 2.29086 10 4.5C10 6.70914 11.7909 8.5 14 8.5C16.2091 8.5 18 6.70914 18 4.5ZM16.5 4.5C16.5 5.88071 15.3807 7 14 7C12.6193 7 11.5 5.88071 11.5 4.5C11.5 3.11929 12.6193 2 14 2C15.3807 2 16.5 3.11929 16.5 4.5ZM4 18.5C1.79086 18.5 0 16.7091 0 14.5C0 12.2909 1.79086 10.5 4 10.5C6.20914 10.5 8 12.2909 8 14.5C8 16.7091 6.20914 18.5 4 18.5ZM4 17C5.38071 17 6.5 15.8807 6.5 14.5C6.5 13.1193 5.38071 12 4 12C2.61929 12 1.5 13.1193 1.5 14.5C1.5 15.8807 2.61929 17 4 17ZM18 14.5C18 12.2909 16.2091 10.5 14 10.5C11.7909 10.5 10 12.2909 10 14.5C10 16.7091 11.7909 18.5 14 18.5C16.2091 18.5 18 16.7091 18 14.5ZM16.5 14.5C16.5 15.8807 15.3807 17 14 17C12.6193 17 11.5 15.8807 11.5 14.5C11.5 13.1193 12.6193 12 14 12C15.3807 12 16.5 13.1193 16.5 14.5Z" fill="#2D403D" fill-opacity="0.6"/>
</svg>
