<svg width="18" height="18" viewBox="0 0 18 18" fill="none" xmlns="http://www.w3.org/2000/svg">
<path d="M8.99996 0.666504C13.6023 0.666504 17.3333 4.39746 17.3333 8.99984C17.3333 13.6022 13.6023 17.3332 8.99996 17.3332C4.39758 17.3332 0.666626 13.6022 0.666626 8.99984C0.666626 4.39746 4.39758 0.666504 8.99996 0.666504ZM8.99996 1.9165C5.08794 1.9165 1.91663 5.08782 1.91663 8.99984C1.91663 12.9118 5.08794 16.0832 8.99996 16.0832C12.912 16.0832 16.0833 12.9118 16.0833 8.99984C16.0833 5.08782 12.912 1.9165 8.99996 1.9165ZM11.8718 5.99738L11.9419 6.0579C12.1638 6.27979 12.184 6.627 12.0024 6.87168L11.9419 6.94178L9.88413 8.99984L11.9419 11.0579C12.1638 11.2798 12.184 11.627 12.0024 11.8717L11.9419 11.9418C11.72 12.1637 11.3728 12.1838 11.1281 12.0023L11.058 11.9418L8.99996 9.884L6.9419 11.9418C6.72001 12.1637 6.37279 12.1838 6.12812 12.0023L6.05802 11.9418C5.83613 11.7199 5.81596 11.3727 5.9975 11.128L6.05802 11.0579L8.11579 8.99984L6.05802 6.94178C5.83613 6.71989 5.81596 6.37267 5.9975 6.128L6.05802 6.0579C6.27991 5.836 6.62713 5.81584 6.8718 5.99738L6.9419 6.0579L8.99996 8.11567L11.058 6.0579C11.2799 5.836 11.6271 5.81584 11.8718 5.99738Z" fill="#2D403D"/>
</svg>
