<svg width="24" height="25" viewBox="0 0 24 25" fill="none" xmlns="http://www.w3.org/2000/svg">
<path d="M20.9519 3.5481C19.5543 2.15058 17.2885 2.15064 15.8911 3.54825L3.94103 15.4997C3.5347 15.9061 3.2491 16.4172 3.116 16.9762L2.02041 21.5777C1.96009 21.8311 2.03552 22.0976 2.21968 22.2817C2.40385 22.4659 2.67037 22.5413 2.92373 22.481L7.52498 21.3855C8.08418 21.2523 8.59546 20.9666 9.00191 20.5601L20.952 8.60861C22.3493 7.21112 22.3493 4.9455 20.9519 3.5481ZM16.9518 4.60884C17.7634 3.79709 19.0795 3.79705 19.8912 4.60876C20.7028 5.4204 20.7029 6.73632 19.8913 7.54801L19 8.43946L16.0606 5.50012L16.9518 4.60884ZM15 6.56084L17.9394 9.50018L7.94119 19.4995C7.73104 19.7097 7.46668 19.8574 7.17755 19.9263L3.76191 20.7395L4.57521 17.3237C4.64402 17.0346 4.79168 16.7704 5.00175 16.5603L15 6.56084Z" fill="#2D403D"/>
</svg>
