<svg width="18" height="20" viewBox="0 0 18 20" fill="none" xmlns="http://www.w3.org/2000/svg">
<path d="M9.0001 0.496094C13.05 0.496094 16.3568 3.69084 16.4959 7.74515L16.5001 7.99609V12.0931L17.8801 15.2491C17.9492 15.407 17.9848 15.5775 17.9848 15.7499C17.9848 16.4402 17.4252 16.9999 16.7348 16.9999L12.0001 17.0014C12.0001 18.6582 10.657 20.0014 9.0001 20.0014C7.4024 20.0014 6.09645 18.7524 6.0052 17.1776L5.99966 16.9991L1.27498 16.9999C1.10364 16.9999 0.934132 16.9646 0.776972 16.8964C0.143772 16.6213 -0.146578 15.8851 0.128462 15.2519L1.50011 12.094V7.99599C1.50071 3.8412 4.8522 0.496094 9.0001 0.496094ZM10.4997 16.9991L7.5001 17.0014C7.5001 17.8298 8.1717 18.5014 9.0001 18.5014C9.7798 18.5014 10.4206 17.9065 10.4932 17.1458L10.4997 16.9991ZM9.0001 1.99609C5.67995 1.99609 3.00059 4.67035 3.00011 7.99609V12.4057L1.65613 15.4999H16.3526L15.0001 12.4067L15.0002 8.00895L14.9965 7.78375C14.8854 4.55027 12.2417 1.99609 9.0001 1.99609Z" fill="#2D403D"/>
</svg>
