<svg width="16" height="16" viewBox="0 0 16 16" fill="none" xmlns="http://www.w3.org/2000/svg">
<path d="M12.7917 0.5C14.2874 0.5 15.5 1.71256 15.5 3.20833V12.7917C15.5 14.2874 14.2874 15.5 12.7917 15.5H3.20833C1.71256 15.5 0.5 14.2874 0.5 12.7917V3.20833C0.5 1.71256 1.71256 0.5 3.20833 0.5H12.7917ZM14.25 5.08333H1.75V12.7917C1.75 13.5971 2.40292 14.25 3.20833 14.25H12.7917C13.5971 14.25 14.25 13.5971 14.25 12.7917V5.08333ZM4.45833 10.0833C5.03363 10.0833 5.5 10.5497 5.5 11.125C5.5 11.7003 5.03363 12.1667 4.45833 12.1667C3.88303 12.1667 3.41667 11.7003 3.41667 11.125C3.41667 10.5497 3.88303 10.0833 4.45833 10.0833ZM8 10.0833C8.57533 10.0833 9.04167 10.5497 9.04167 11.125C9.04167 11.7003 8.57533 12.1667 8 12.1667C7.42467 12.1667 6.95833 11.7003 6.95833 11.125C6.95833 10.5497 7.42467 10.0833 8 10.0833ZM4.45833 6.75C5.03363 6.75 5.5 7.21633 5.5 7.79167C5.5 8.367 5.03363 8.83333 4.45833 8.83333C3.88303 8.83333 3.41667 8.367 3.41667 7.79167C3.41667 7.21633 3.88303 6.75 4.45833 6.75ZM8 6.75C8.57533 6.75 9.04167 7.21633 9.04167 7.79167C9.04167 8.367 8.57533 8.83333 8 8.83333C7.42467 8.83333 6.95833 8.367 6.95833 7.79167C6.95833 7.21633 7.42467 6.75 8 6.75ZM11.5417 6.75C12.117 6.75 12.5833 7.21633 12.5833 7.79167C12.5833 8.367 12.117 8.83333 11.5417 8.83333C10.9663 8.83333 10.5 8.367 10.5 7.79167C10.5 7.21633 10.9663 6.75 11.5417 6.75ZM12.7917 1.75H3.20833C2.40292 1.75 1.75 2.40292 1.75 3.20833V3.83333H14.25V3.20833C14.25 2.40292 13.5971 1.75 12.7917 1.75Z" fill="#2D403D"/>
</svg>
