<svg width="55" height="52" viewBox="0 0 55 52" fill="none" xmlns="http://www.w3.org/2000/svg">
<path d="M32.7929 0.885498C34.9869 0.885498 37.0169 2.04729 38.1279 3.93902L40.3681 7.75211H46.0625C50.9985 7.75211 55 11.7536 55 16.6896V42.8147C55 47.7507 50.9985 51.7522 46.0625 51.7522H8.9375C4.00144 51.7522 0 47.7507 0 42.8147V16.6896C0 11.7536 4.00144 7.75211 8.9375 7.75211H14.6587L17.0637 3.83529C18.1892 2.00241 20.1857 0.885498 22.3366 0.885498H32.7929ZM32.7929 5.0105H22.3366C21.722 5.0105 21.1453 5.28401 20.7568 5.74692L20.5789 5.99376L17.5701 10.8938C17.195 11.5048 16.5295 11.8771 15.8125 11.8771H8.9375C6.27962 11.8771 4.125 14.0317 4.125 16.6896V42.8147C4.125 45.4726 6.27962 47.6272 8.9375 47.6272H46.0625C48.7204 47.6272 50.875 45.4726 50.875 42.8147V16.6896C50.875 14.0317 48.7204 11.8771 46.0625 11.8771H39.1875C38.4563 11.8771 37.7795 11.4898 37.4091 10.8593L34.5714 6.02833C34.2009 5.39775 33.5242 5.0105 32.7929 5.0105ZM27.5 16.0021C34.3346 16.0021 39.875 21.5426 39.875 28.3772C39.875 35.2115 34.3346 40.7522 27.5 40.7522C20.6655 40.7522 15.125 35.2115 15.125 28.3772C15.125 21.5426 20.6655 16.0021 27.5 16.0021ZM27.5 20.1271C22.9435 20.1271 19.25 23.8207 19.25 28.3772C19.25 32.9334 22.9435 36.6272 27.5 36.6272C32.0565 36.6272 35.75 32.9334 35.75 28.3772C35.75 23.8207 32.0565 20.1271 27.5 20.1271Z" fill="#2D403D"/>
</svg>
