<svg width="16" height="18" viewBox="0 0 16 18" fill="none" xmlns="http://www.w3.org/2000/svg">
<path d="M2.86897 2.80665C5.70264 -0.0270222 10.297 -0.0270222 13.1306 2.80665C15.9643 5.64033 15.9643 10.2347 13.1306 13.0683L12.1415 14.0466C11.4124 14.7621 10.4665 15.6821 9.30323 16.8067C8.57639 17.5095 7.42323 17.5094 6.69648 16.8065L3.78719 13.9766C3.42156 13.6176 3.1155 13.3148 2.86897 13.0683C0.0352947 10.2347 0.0352947 5.64033 2.86897 2.80665ZM12.2467 3.69054C9.90123 1.34501 6.09837 1.34501 3.75285 3.69054C1.40733 6.03605 1.40733 9.83891 3.75285 12.1844L4.99208 13.4073C5.6745 14.0752 6.53239 14.9088 7.56548 15.908C7.80773 16.1422 8.19206 16.1423 8.43439 15.9081L11.2635 13.1568C11.6542 12.7732 11.9821 12.4491 12.2467 12.1844C14.5922 9.83891 14.5922 6.03605 12.2467 3.69054ZM7.99981 5.66553C9.38123 5.66553 10.5011 6.78539 10.5011 8.16683C10.5011 9.54824 9.38123 10.6681 7.99981 10.6681C6.61839 10.6681 5.4985 9.54824 5.4985 8.16683C5.4985 6.78539 6.61839 5.66553 7.99981 5.66553ZM7.99981 6.91553C7.30873 6.91553 6.74848 7.47574 6.74848 8.16683C6.74848 8.85791 7.30873 9.41808 7.99981 9.41808C8.69089 9.41808 9.25106 8.85791 9.25106 8.16683C9.25106 7.47574 8.69089 6.91553 7.99981 6.91553Z" fill="#2D403D"/>
</svg>
